<svg width="22" height="12" viewBox="0 0 22 12" fill="none" xmlns="http://www.w3.org/2000/svg">
<path d="M11 0C4.11095 0 0.5 5.17714 0.5 6C0.5 6.82071 4.11095 12 11 12C17.888 12 21.5 6.82071 21.5 6C21.5 5.17714 17.888 0 11 0ZM11 10.6146C8.42225 10.6146 6.33275 8.54893 6.33275 6C6.33275 3.45107 8.42225 1.38321 11 1.38321C13.5777 1.38321 15.6662 3.45107 15.6662 6C15.6662 8.54893 13.5777 10.6146 11 10.6146ZM11 6C10.5726 5.52107 11.6961 3.69214 11 3.69214C9.7106 3.69214 8.66585 4.72607 8.66585 6C8.66585 7.27393 9.7106 8.30786 11 8.30786C12.2883 8.30786 13.3341 7.27393 13.3341 6C13.3341 5.41393 11.3633 6.40607 11 6Z" fill="#BDBDBD"/>
</svg>
