<svg width="24" height="18" viewBox="0 0 24 18" fill="none" xmlns="http://www.w3.org/2000/svg">
<path d="M17.907 6.74981H12.5633V8.71873C12.5633 10.1145 11.4277 11.2502 10.032 11.2502C8.63633 11.2502 7.50079 10.1145 7.50079 8.71873V4.44337L5.21915 5.81457C4.54064 6.2189 4.1258 6.95373 4.1258 7.7413V9.40433L1.3133 11.0287C0.775411 11.3381 0.589083 12.0272 0.901973 12.5651L3.71447 17.4382C4.02384 17.9761 4.7129 18.159 5.25079 17.8496L8.88594 15.7506H13.6883C14.9293 15.7506 15.9383 14.7415 15.9383 13.5004H16.5008C17.123 13.5004 17.6258 12.9976 17.6258 12.3753V10.1251H17.907C18.3746 10.1251 18.7508 9.74889 18.7508 9.28127V7.59363C18.7508 7.12601 18.3746 6.74981 17.907 6.74981ZM23.0996 5.43485L20.2871 0.561787C19.9777 0.0238509 19.2887 -0.158977 18.7508 0.150424L15.1156 2.24943H11.5227C11.1008 2.24943 10.6895 2.36897 10.3309 2.59047L9.15313 3.3253C8.82266 3.52923 8.62579 3.89137 8.62579 4.27812V8.71873C8.62579 9.49574 9.25508 10.1251 10.032 10.1251C10.809 10.1251 11.4383 9.49574 11.4383 8.71873V5.62471H17.907C18.9933 5.62471 19.8758 6.50721 19.8758 7.59363V8.59567L22.6883 6.97131C23.2262 6.6584 23.409 5.97279 23.0996 5.43485Z" fill="#BDBDBD"/>
</svg>
