<svg width="22" height="27" viewBox="0 0 22 27" fill="none" xmlns="http://www.w3.org/2000/svg">
<path d="M10.9997 26.3333C12.4663 26.3333 13.6663 25.1333 13.6663 23.6667H8.33301C8.33301 24.3739 8.61396 25.0522 9.11406 25.5523C9.61415 26.0524 10.2924 26.3333 10.9997 26.3333ZM18.9997 18.3333V11.6667C18.9997 7.57334 16.813 4.14668 12.9997 3.24001V2.33334C12.9997 1.22668 12.1063 0.333344 10.9997 0.333344C9.89301 0.333344 8.99967 1.22668 8.99967 2.33334V3.24001C5.17301 4.14668 2.99967 7.56001 2.99967 11.6667V18.3333L0.333008 21V22.3333H21.6663V21L18.9997 18.3333Z" fill="#828282"/>
</svg>
