<svg width="21" height="20" viewBox="0 0 21 20" fill="none" xmlns="http://www.w3.org/2000/svg">
<path d="M20.7133 8.48L18.48 7.81333C18.3256 7.2742 18.1132 6.75339 17.8466 6.26L18.94 4.21333C18.981 4.13607 18.996 4.04765 18.9828 3.96118C18.9696 3.87471 18.9289 3.79481 18.8666 3.73333L17.2733 2.13333C17.2118 2.07111 17.1319 2.03037 17.0455 2.01716C16.959 2.00395 16.8706 2.01897 16.7933 2.06L14.76 3.14666C14.2617 2.8671 13.7341 2.64352 13.1866 2.48L12.52 0.273329C12.4918 0.192006 12.4385 0.121728 12.3678 0.0726098C12.2971 0.0234917 12.2127 -0.00193297 12.1266 -4.69902e-06H9.87331C9.78674 0.00039835 9.70256 0.0284183 9.63301 0.0799774C9.56347 0.131537 9.51219 0.203944 9.48665 0.286662L8.81998 2.48666C8.26799 2.64931 7.73582 2.87291 7.23331 3.15333L5.23331 2.07333C5.15606 2.0323 5.06764 2.01728 4.98117 2.03049C4.8947 2.0437 4.81479 2.08444 4.75331 2.14666L3.13331 3.72666C3.07109 3.78814 3.03035 3.86805 3.01714 3.95452C3.00393 4.04098 3.01896 4.12941 3.05998 4.20666L4.13998 6.20666C3.86002 6.70706 3.63643 7.23697 3.47331 7.78666L1.26665 8.45333C1.18393 8.47887 1.11152 8.53015 1.05996 8.5997C1.0084 8.66924 0.980384 8.75342 0.97998 8.84V11.0933C0.980384 11.1799 1.0084 11.2641 1.05996 11.3336C1.11152 11.4032 1.18393 11.4544 1.26665 11.48L3.48665 12.1467C3.65154 12.6872 3.8751 13.2081 4.15331 13.7L3.05998 15.7933C3.01896 15.8706 3.00393 15.959 3.01714 16.0455C3.03035 16.1319 3.07109 16.2118 3.13331 16.2733L4.72665 17.8667C4.78813 17.9289 4.86803 17.9696 4.9545 17.9828C5.04097 17.996 5.12939 17.981 5.20665 17.94L7.26665 16.84C7.75396 17.1029 8.26799 17.313 8.79998 17.4667L9.46665 19.7133C9.49219 19.796 9.54347 19.8685 9.61301 19.92C9.68256 19.9716 9.76674 19.9996 9.85331 20H12.1066C12.1932 19.9996 12.2774 19.9716 12.3469 19.92C12.4165 19.8685 12.4678 19.796 12.4933 19.7133L13.16 17.46C13.6874 17.3056 14.197 17.0955 14.68 16.8333L16.7533 17.94C16.8306 17.981 16.919 17.996 17.0055 17.9828C17.0919 17.9696 17.1718 17.9289 17.2333 17.8667L18.8266 16.2733C18.8889 16.2118 18.9296 16.1319 18.9428 16.0455C18.956 15.959 18.941 15.8706 18.9 15.7933L17.7933 13.7267C18.0582 13.2418 18.2705 12.73 18.4266 12.2L20.6733 11.5333C20.756 11.5078 20.8284 11.4565 20.88 11.387C20.9316 11.3174 20.9596 11.2332 20.96 11.1467V8.87333C20.9639 8.79043 20.9424 8.70831 20.8983 8.638C20.8542 8.56769 20.7897 8.51256 20.7133 8.48ZM11 13.6667C10.2748 13.6667 9.56587 13.4516 8.96289 13.0487C8.35991 12.6458 7.88994 12.0732 7.61242 11.4032C7.3349 10.7332 7.26229 9.99593 7.40377 9.28467C7.54525 8.5734 7.89446 7.92006 8.40725 7.40727C8.92005 6.89448 9.57339 6.54526 10.2846 6.40378C10.9959 6.2623 11.7332 6.33492 12.4032 6.61244C13.0731 6.88996 13.6458 7.35992 14.0487 7.9629C14.4516 8.56589 14.6666 9.2748 14.6666 10C14.6666 10.9725 14.2803 11.9051 13.5927 12.5927C12.9051 13.2804 11.9724 13.6667 11 13.6667Z" fill="#BDBDBD"/>
</svg>
